<svg width="38" height="38" viewBox="0 0 38 38" fill="none" xmlns="http://www.w3.org/2000/svg">
<g filter="url(#filter0_dd_13001_401)">
<rect x="3.1" y="2.1" width="31.8" height="31.8" rx="7.9" fill="white"/>
<rect x="3.1" y="2.1" width="31.8" height="31.8" rx="7.9" fill="url(#paint0_linear_13001_401)"/>
<rect x="3.1" y="2.1" width="31.8" height="31.8" rx="7.9" stroke="#D0D5DD" stroke-width="0.2"/>
<rect x="7" y="6" width="24" height="24" rx="8" fill="white"/>
<rect x="7" y="6" width="24" height="24" rx="8" fill="url(#paint1_linear_13001_401)"/>
<path d="M19 10C14.5851 10 11 13.5851 11 18C11 22.4149 14.5851 26 19 26C23.4149 26 27 22.4149 27 18C27 13.5851 23.4149 10 19 10ZM19 10.5333C23.1269 10.5333 26.4667 13.8731 26.4667 18C26.4667 22.1269 23.1269 25.4667 19 25.4667C14.8731 25.4667 11.5333 22.1269 11.5333 18C11.5333 13.8731 14.8731 10.5333 19 10.5333ZM19 11.6C15.4688 11.6 12.6 14.4688 12.6 18C12.6 21.5317 15.4688 24.4 19 24.4C22.5312 24.4 25.4 21.5317 25.4 18C25.4 14.4688 22.5312 11.6 19 11.6ZM19 12.1333C21.8784 12.1333 24.264 14.2011 24.7653 16.9333H23.1408C22.4555 15.912 20.8197 15.3333 18.9936 15.3333C18.9932 15.3333 18.9929 15.3333 18.9925 15.3333C17.1728 15.3333 15.5472 15.9157 14.8656 16.9333H13.2341C13.736 14.2011 16.1216 12.1333 19 12.1333ZM18.9936 15.8667C20.7397 15.8667 22.2496 16.5083 22.7312 17.2821L22.7301 19.1221C22.059 19.1833 21.4304 19.4777 20.9538 19.9541C20.4771 20.4306 20.1825 21.059 20.1211 21.7301H17.8789C17.8177 21.0591 17.5233 20.4307 17.0468 19.9542C16.5704 19.4778 15.942 19.1833 15.2709 19.1221L15.2688 17.2917C15.7424 16.5173 17.2475 15.8688 18.9936 15.8667ZM21.9429 17.0843C21.934 17.0842 21.9251 17.0845 21.9163 17.0853C21.8656 17.0887 21.8169 17.1065 21.776 17.1365L21.248 17.5147C21.217 17.5339 21.1903 17.5593 21.1695 17.5892C21.1486 17.6192 21.1342 17.6531 21.127 17.6889C21.1199 17.7247 21.1201 17.7615 21.1278 17.7972C21.1354 17.8329 21.1503 17.8666 21.1715 17.8963C21.1927 17.926 21.2198 17.951 21.2511 17.9698C21.2823 17.9886 21.3171 18.0008 21.3533 18.0056C21.3894 18.0105 21.4262 18.0078 21.4613 17.9978C21.4964 17.9879 21.5291 17.9708 21.5573 17.9477L22.0853 17.5707C22.1317 17.5389 22.1668 17.4932 22.1856 17.4403C22.2045 17.3874 22.2062 17.3298 22.1904 17.2759C22.1746 17.2219 22.1421 17.1744 22.0977 17.14C22.0533 17.1055 21.9991 17.0861 21.9429 17.0843ZM13.16 17.4667H14.7349L14.736 18.5333H13.16C13.144 18.3573 13.1333 18.1803 13.1333 18C13.1333 17.8203 13.1445 17.6427 13.16 17.4667ZM19 17.4667C18.4139 17.4667 17.9333 17.9472 17.9333 18.5333C17.9333 19.1195 18.4139 19.6 19 19.6C19.5861 19.6 20.0667 19.1195 20.0667 18.5333C20.0667 17.9472 19.5861 17.4667 19 17.4667ZM23.2645 17.4667H24.8395C24.8555 17.6427 24.8667 17.8203 24.8667 18C24.8667 18.1803 24.8555 18.3573 24.84 18.5333H23.2635L23.2645 17.4667ZM19 18C19.2976 18 19.5333 18.2357 19.5333 18.5333C19.5333 18.8309 19.2976 19.0667 19 19.0667C18.7024 19.0667 18.4667 18.8309 18.4667 18.5333C18.4667 18.2357 18.7024 18 19 18ZM21.9429 18.1509C21.934 18.1508 21.9251 18.1512 21.9163 18.152C21.8656 18.1554 21.8169 18.1731 21.776 18.2032L21.248 18.5813C21.217 18.6006 21.1903 18.6259 21.1695 18.6559C21.1486 18.6859 21.1342 18.7198 21.127 18.7556C21.1199 18.7914 21.1201 18.8282 21.1278 18.8639C21.1354 18.8996 21.1503 18.9333 21.1715 18.963C21.1927 18.9927 21.2198 19.0177 21.2511 19.0365C21.2823 19.0553 21.3171 19.0675 21.3533 19.0723C21.3894 19.0771 21.4262 19.0745 21.4613 19.0645C21.4964 19.0546 21.5291 19.0375 21.5573 19.0144L22.0853 18.6373C22.1317 18.6055 22.1668 18.5599 22.1856 18.507C22.2045 18.454 22.2062 18.3965 22.1904 18.3425C22.1746 18.2886 22.1421 18.241 22.0977 18.2066C22.0533 18.1722 21.9991 18.1527 21.9429 18.1509ZM13.2341 19.0667H14.7376V19.3344C14.7376 19.4051 14.7657 19.473 14.8157 19.523C14.8657 19.573 14.9335 19.6011 15.0043 19.6011C15.319 19.6005 15.6308 19.6621 15.9217 19.7823C16.2127 19.9025 16.477 20.0789 16.6996 20.3015C16.9221 20.5241 17.0986 20.7884 17.2188 21.0793C17.339 21.3702 17.4006 21.682 17.4 21.9968C17.4 22.0675 17.4281 22.1354 17.4781 22.1854C17.5281 22.2354 17.5959 22.2635 17.6667 22.2635H17.9333V23.7648C16.7666 23.5494 15.6927 22.985 14.8537 22.1461C14.0147 21.3072 13.4496 20.2334 13.2341 19.0667ZM23.2635 19.0667H24.7659C24.5503 20.2335 23.9857 21.3073 23.1466 22.1462C22.3075 22.9851 21.2335 23.5495 20.0667 23.7648V22.2635H20.3333C20.4041 22.2635 20.4719 22.2354 20.5219 22.1854C20.5719 22.1354 20.6 22.0675 20.6 21.9968C20.5996 21.682 20.6613 21.3702 20.7816 21.0792C20.9019 20.7883 21.0785 20.524 21.3011 20.3014C21.5238 20.0789 21.7882 19.9025 22.0792 19.7823C22.3701 19.6621 22.682 19.6005 22.9968 19.6011C23.0675 19.6011 23.1354 19.573 23.1854 19.523C23.2354 19.473 23.2635 19.4051 23.2635 19.3344V19.0667ZM18.4667 22.2635H19.5333V23.8384C19.3573 23.8544 19.1803 23.8667 19 23.8667C18.8197 23.8667 18.6427 23.8544 18.4667 23.8384V22.2635Z" fill="white"/>
</g>
<defs>
<filter id="filter0_dd_13001_401" x="0" y="0" width="38" height="38" filterUnits="userSpaceOnUse" color-interpolation-filters="sRGB">
<feFlood flood-opacity="0" result="BackgroundImageFix"/>
<feColorMatrix in="SourceAlpha" type="matrix" values="0 0 0 0 0 0 0 0 0 0 0 0 0 0 0 0 0 0 127 0" result="hardAlpha"/>
<feOffset dy="1"/>
<feGaussianBlur stdDeviation="1"/>
<feColorMatrix type="matrix" values="0 0 0 0 0.0627451 0 0 0 0 0.0941176 0 0 0 0 0.156863 0 0 0 0.06 0"/>
<feBlend mode="normal" in2="BackgroundImageFix" result="effect1_dropShadow_13001_401"/>
<feColorMatrix in="SourceAlpha" type="matrix" values="0 0 0 0 0 0 0 0 0 0 0 0 0 0 0 0 0 0 127 0" result="hardAlpha"/>
<feOffset dy="1"/>
<feGaussianBlur stdDeviation="1.5"/>
<feColorMatrix type="matrix" values="0 0 0 0 0.0627451 0 0 0 0 0.0941176 0 0 0 0 0.156863 0 0 0 0.1 0"/>
<feBlend mode="normal" in2="effect1_dropShadow_13001_401" result="effect2_dropShadow_13001_401"/>
<feBlend mode="normal" in="SourceGraphic" in2="effect2_dropShadow_13001_401" result="shape"/>
</filter>
<linearGradient id="paint0_linear_13001_401" x1="19" y1="2" x2="19" y2="34" gradientUnits="userSpaceOnUse">
<stop stop-color="white"/>
<stop offset="1" stop-color="#D0D5DD"/>
</linearGradient>
<linearGradient id="paint1_linear_13001_401" x1="19" y1="6" x2="19" y2="30" gradientUnits="userSpaceOnUse">
<stop stop-color="#79DD83"/>
<stop offset="1" stop-color="#00A482"/>
</linearGradient>
</defs>
</svg>
