<svg width="164" height="38" viewBox="0 0 164 38" fill="none" xmlns="http://www.w3.org/2000/svg">
<g filter="url(#filter0_dd_13001_399)">
<rect x="3.1" y="2.1" width="31.8" height="31.8" rx="7.9" fill="white"/>
<rect x="3.1" y="2.1" width="31.8" height="31.8" rx="7.9" fill="url(#paint0_linear_13001_399)"/>
<rect x="3.1" y="2.1" width="31.8" height="31.8" rx="7.9" stroke="#D0D5DD" stroke-width="0.2"/>
<rect x="7" y="6" width="24" height="24" rx="8" fill="white"/>
<rect x="7" y="6" width="24" height="24" rx="8" fill="url(#paint1_linear_13001_399)"/>
<path d="M19 10C14.5851 10 11 13.5851 11 18C11 22.4149 14.5851 26 19 26C23.4149 26 27 22.4149 27 18C27 13.5851 23.4149 10 19 10ZM19 10.5333C23.1269 10.5333 26.4667 13.8731 26.4667 18C26.4667 22.1269 23.1269 25.4667 19 25.4667C14.8731 25.4667 11.5333 22.1269 11.5333 18C11.5333 13.8731 14.8731 10.5333 19 10.5333ZM19 11.6C15.4688 11.6 12.6 14.4688 12.6 18C12.6 21.5317 15.4688 24.4 19 24.4C22.5312 24.4 25.4 21.5317 25.4 18C25.4 14.4688 22.5312 11.6 19 11.6ZM19 12.1333C21.8784 12.1333 24.264 14.2011 24.7653 16.9333H23.1408C22.4555 15.912 20.8197 15.3333 18.9936 15.3333C18.9932 15.3333 18.9929 15.3333 18.9925 15.3333C17.1728 15.3333 15.5472 15.9157 14.8656 16.9333H13.2341C13.736 14.2011 16.1216 12.1333 19 12.1333ZM18.9936 15.8667C20.7397 15.8667 22.2496 16.5083 22.7312 17.2821L22.7301 19.1221C22.059 19.1833 21.4304 19.4777 20.9538 19.9541C20.4771 20.4306 20.1825 21.059 20.1211 21.7301H17.8789C17.8177 21.0591 17.5233 20.4307 17.0468 19.9542C16.5704 19.4778 15.942 19.1833 15.2709 19.1221L15.2688 17.2917C15.7424 16.5173 17.2475 15.8688 18.9936 15.8667ZM21.9429 17.0843C21.934 17.0842 21.9251 17.0845 21.9163 17.0853C21.8656 17.0887 21.8169 17.1065 21.776 17.1365L21.248 17.5147C21.217 17.5339 21.1903 17.5593 21.1695 17.5892C21.1486 17.6192 21.1342 17.6531 21.127 17.6889C21.1199 17.7247 21.1201 17.7615 21.1278 17.7972C21.1354 17.8329 21.1503 17.8666 21.1715 17.8963C21.1927 17.926 21.2198 17.951 21.2511 17.9698C21.2823 17.9886 21.3171 18.0008 21.3533 18.0056C21.3894 18.0105 21.4262 18.0078 21.4613 17.9978C21.4964 17.9879 21.5291 17.9708 21.5573 17.9477L22.0853 17.5707C22.1317 17.5389 22.1668 17.4932 22.1856 17.4403C22.2045 17.3874 22.2062 17.3298 22.1904 17.2759C22.1746 17.2219 22.1421 17.1744 22.0977 17.14C22.0533 17.1055 21.9991 17.0861 21.9429 17.0843ZM13.16 17.4667H14.7349L14.736 18.5333H13.16C13.144 18.3573 13.1333 18.1803 13.1333 18C13.1333 17.8203 13.1445 17.6427 13.16 17.4667ZM19 17.4667C18.4139 17.4667 17.9333 17.9472 17.9333 18.5333C17.9333 19.1195 18.4139 19.6 19 19.6C19.5861 19.6 20.0667 19.1195 20.0667 18.5333C20.0667 17.9472 19.5861 17.4667 19 17.4667ZM23.2645 17.4667H24.8395C24.8555 17.6427 24.8667 17.8203 24.8667 18C24.8667 18.1803 24.8555 18.3573 24.84 18.5333H23.2635L23.2645 17.4667ZM19 18C19.2976 18 19.5333 18.2357 19.5333 18.5333C19.5333 18.8309 19.2976 19.0667 19 19.0667C18.7024 19.0667 18.4667 18.8309 18.4667 18.5333C18.4667 18.2357 18.7024 18 19 18ZM21.9429 18.1509C21.934 18.1508 21.9251 18.1512 21.9163 18.152C21.8656 18.1554 21.8169 18.1731 21.776 18.2032L21.248 18.5813C21.217 18.6006 21.1903 18.6259 21.1695 18.6559C21.1486 18.6859 21.1342 18.7198 21.127 18.7556C21.1199 18.7914 21.1201 18.8282 21.1278 18.8639C21.1354 18.8996 21.1503 18.9333 21.1715 18.963C21.1927 18.9927 21.2198 19.0177 21.2511 19.0365C21.2823 19.0553 21.3171 19.0675 21.3533 19.0723C21.3894 19.0771 21.4262 19.0745 21.4613 19.0645C21.4964 19.0546 21.5291 19.0375 21.5573 19.0144L22.0853 18.6373C22.1317 18.6055 22.1668 18.5599 22.1856 18.507C22.2045 18.454 22.2062 18.3965 22.1904 18.3425C22.1746 18.2886 22.1421 18.241 22.0977 18.2066C22.0533 18.1722 21.9991 18.1527 21.9429 18.1509ZM13.2341 19.0667H14.7376V19.3344C14.7376 19.4051 14.7657 19.473 14.8157 19.523C14.8657 19.573 14.9335 19.6011 15.0043 19.6011C15.319 19.6005 15.6308 19.6621 15.9217 19.7823C16.2127 19.9025 16.477 20.0789 16.6996 20.3015C16.9221 20.5241 17.0986 20.7884 17.2188 21.0793C17.339 21.3702 17.4006 21.682 17.4 21.9968C17.4 22.0675 17.4281 22.1354 17.4781 22.1854C17.5281 22.2354 17.5959 22.2635 17.6667 22.2635H17.9333V23.7648C16.7666 23.5494 15.6927 22.985 14.8537 22.1461C14.0147 21.3072 13.4496 20.2334 13.2341 19.0667ZM23.2635 19.0667H24.7659C24.5503 20.2335 23.9857 21.3073 23.1466 22.1462C22.3075 22.9851 21.2335 23.5495 20.0667 23.7648V22.2635H20.3333C20.4041 22.2635 20.4719 22.2354 20.5219 22.1854C20.5719 22.1354 20.6 22.0675 20.6 21.9968C20.5996 21.682 20.6613 21.3702 20.7816 21.0792C20.9019 20.7883 21.0785 20.524 21.3011 20.3014C21.5238 20.0789 21.7882 19.9025 22.0792 19.7823C22.3701 19.6621 22.682 19.6005 22.9968 19.6011C23.0675 19.6011 23.1354 19.573 23.1854 19.523C23.2354 19.473 23.2635 19.4051 23.2635 19.3344V19.0667ZM18.4667 22.2635H19.5333V23.8384C19.3573 23.8544 19.1803 23.8667 19 23.8667C18.8197 23.8667 18.6427 23.8544 18.4667 23.8384V22.2635Z" fill="white"/>
</g>
<path d="M46.728 28V10.12H52.56C54.448 10.12 56.088 10.504 57.48 11.272C58.888 12.024 59.976 13.072 60.744 14.416C61.512 15.744 61.896 17.288 61.896 19.048C61.896 20.792 61.512 22.344 60.744 23.704C59.976 25.048 58.888 26.104 57.48 26.872C56.088 27.624 54.448 28 52.56 28H46.728ZM49.992 25.12H52.632C53.848 25.12 54.896 24.872 55.776 24.376C56.672 23.864 57.368 23.16 57.864 22.264C58.36 21.352 58.608 20.28 58.608 19.048C58.608 17.8 58.36 16.728 57.864 15.832C57.368 14.936 56.672 14.24 55.776 13.744C54.896 13.248 53.848 13 52.632 13H49.992V25.12ZM64.2296 28V14.944H67.1816V17.848L66.9416 17.416C67.2456 16.44 67.7176 15.76 68.3576 15.376C69.0136 14.992 69.7976 14.8 70.7096 14.8H71.4776V17.584H70.3496C69.4536 17.584 68.7336 17.864 68.1896 18.424C67.6456 18.968 67.3736 19.736 67.3736 20.728V28H64.2296ZM73.2062 28V14.944H76.3502V28H73.2062ZM73.2062 13.48V10.12H76.3502V13.48H73.2062ZM83.1891 28L78.0531 14.944H81.4851L85.2051 25.216H83.9331L87.6771 14.944H91.1091L85.9731 28H83.1891ZM98.8044 28.288C97.4604 28.288 96.2844 27.984 95.2764 27.376C94.2684 26.768 93.4844 25.944 92.9244 24.904C92.3644 23.864 92.0844 22.712 92.0844 21.448C92.0844 20.136 92.3644 18.976 92.9244 17.968C93.5004 16.944 94.2764 16.136 95.2524 15.544C96.2444 14.952 97.3484 14.656 98.5644 14.656C99.5884 14.656 100.484 14.824 101.252 15.16C102.036 15.496 102.7 15.96 103.244 16.552C103.788 17.144 104.204 17.824 104.492 18.592C104.78 19.344 104.924 20.16 104.924 21.04C104.924 21.264 104.908 21.496 104.876 21.736C104.86 21.976 104.82 22.184 104.756 22.36H94.6764V19.96H102.98L101.492 21.088C101.636 20.352 101.596 19.696 101.372 19.12C101.164 18.544 100.812 18.088 100.316 17.752C99.8364 17.416 99.2524 17.248 98.5644 17.248C97.9084 17.248 97.3244 17.416 96.8124 17.752C96.3004 18.072 95.9084 18.552 95.6364 19.192C95.3804 19.816 95.2844 20.576 95.3484 21.472C95.2844 22.272 95.3884 22.984 95.6604 23.608C95.9484 24.216 96.3644 24.688 96.9084 25.024C97.4684 25.36 98.1084 25.528 98.8284 25.528C99.5484 25.528 100.156 25.376 100.652 25.072C101.164 24.768 101.564 24.36 101.852 23.848L104.396 25.096C104.14 25.72 103.74 26.272 103.196 26.752C102.652 27.232 102.004 27.608 101.252 27.88C100.516 28.152 99.7004 28.288 98.8044 28.288ZM113.956 28.288C112.82 28.288 111.764 28.08 110.788 27.664C109.828 27.248 108.996 26.672 108.292 25.936C107.604 25.184 107.1 24.312 106.78 23.32L109.492 22.144C109.924 23.168 110.548 23.976 111.364 24.568C112.18 25.144 113.1 25.432 114.124 25.432C114.7 25.432 115.196 25.344 115.612 25.168C116.044 24.976 116.372 24.72 116.596 24.4C116.836 24.08 116.956 23.696 116.956 23.248C116.956 22.72 116.796 22.288 116.476 21.952C116.172 21.6 115.708 21.328 115.084 21.136L111.652 20.032C110.26 19.6 109.212 18.952 108.508 18.088C107.804 17.224 107.452 16.208 107.452 15.04C107.452 14.016 107.7 13.112 108.196 12.328C108.708 11.544 109.412 10.936 110.308 10.504C111.22 10.056 112.26 9.832 113.428 9.832C114.5 9.832 115.484 10.024 116.38 10.408C117.276 10.776 118.044 11.296 118.684 11.968C119.34 12.624 119.828 13.4 120.148 14.296L117.46 15.496C117.108 14.6 116.58 13.912 115.876 13.432C115.172 12.936 114.356 12.688 113.428 12.688C112.884 12.688 112.404 12.784 111.988 12.976C111.572 13.152 111.244 13.408 111.004 13.744C110.78 14.064 110.668 14.448 110.668 14.896C110.668 15.392 110.828 15.832 111.148 16.216C111.468 16.584 111.956 16.872 112.612 17.08L115.9 18.112C117.324 18.576 118.388 19.216 119.092 20.032C119.812 20.848 120.172 21.856 120.172 23.056C120.172 24.08 119.908 24.984 119.38 25.768C118.852 26.552 118.124 27.168 117.196 27.616C116.268 28.064 115.188 28.288 113.956 28.288ZM126.69 28.288C125.778 28.288 124.986 28.136 124.314 27.832C123.642 27.528 123.122 27.096 122.754 26.536C122.386 25.96 122.202 25.296 122.202 24.544C122.202 23.824 122.362 23.184 122.682 22.624C123.002 22.048 123.498 21.568 124.17 21.184C124.842 20.8 125.69 20.528 126.714 20.368L130.986 19.672V22.072L127.314 22.696C126.69 22.808 126.226 23.008 125.922 23.296C125.618 23.584 125.466 23.96 125.466 24.424C125.466 24.872 125.634 25.232 125.97 25.504C126.322 25.76 126.754 25.888 127.266 25.888C127.922 25.888 128.498 25.752 128.994 25.48C129.506 25.192 129.898 24.8 130.17 24.304C130.458 23.808 130.602 23.264 130.602 22.672V19.312C130.602 18.752 130.378 18.288 129.93 17.92C129.498 17.536 128.922 17.344 128.202 17.344C127.53 17.344 126.93 17.528 126.402 17.896C125.89 18.248 125.514 18.72 125.274 19.312L122.706 18.064C122.962 17.376 123.362 16.784 123.906 16.288C124.466 15.776 125.122 15.376 125.874 15.088C126.626 14.8 127.442 14.656 128.322 14.656C129.394 14.656 130.338 14.856 131.154 15.256C131.97 15.64 132.602 16.184 133.05 16.888C133.514 17.576 133.746 18.384 133.746 19.312V28H130.77V25.768L131.442 25.72C131.106 26.28 130.706 26.752 130.242 27.136C129.778 27.504 129.25 27.792 128.658 28C128.066 28.192 127.41 28.288 126.69 28.288ZM137.976 28V17.752H135.672V14.944H137.976V14.512C137.976 13.52 138.176 12.68 138.576 11.992C138.992 11.288 139.568 10.752 140.304 10.384C141.04 10.016 141.912 9.832 142.92 9.832C143.112 9.832 143.32 9.848 143.544 9.88C143.784 9.896 143.984 9.92 144.144 9.952V12.664C143.984 12.632 143.832 12.616 143.688 12.616C143.56 12.6 143.44 12.592 143.328 12.592C142.624 12.592 142.08 12.752 141.696 13.072C141.312 13.376 141.12 13.856 141.12 14.512V14.944H144.024V17.752H141.12V28H137.976ZM152.031 28.288C150.687 28.288 149.511 27.984 148.503 27.376C147.495 26.768 146.711 25.944 146.151 24.904C145.591 23.864 145.311 22.712 145.311 21.448C145.311 20.136 145.591 18.976 146.151 17.968C146.727 16.944 147.503 16.136 148.479 15.544C149.471 14.952 150.575 14.656 151.791 14.656C152.815 14.656 153.711 14.824 154.479 15.16C155.263 15.496 155.927 15.96 156.471 16.552C157.015 17.144 157.431 17.824 157.719 18.592C158.007 19.344 158.151 20.16 158.151 21.04C158.151 21.264 158.135 21.496 158.103 21.736C158.087 21.976 158.047 22.184 157.983 22.36H147.903V19.96H156.207L154.719 21.088C154.863 20.352 154.823 19.696 154.599 19.12C154.391 18.544 154.039 18.088 153.543 17.752C153.063 17.416 152.479 17.248 151.791 17.248C151.135 17.248 150.551 17.416 150.039 17.752C149.527 18.072 149.135 18.552 148.863 19.192C148.607 19.816 148.511 20.576 148.575 21.472C148.511 22.272 148.615 22.984 148.887 23.608C149.175 24.216 149.591 24.688 150.135 25.024C150.695 25.36 151.335 25.528 152.055 25.528C152.775 25.528 153.383 25.376 153.879 25.072C154.391 24.768 154.791 24.36 155.079 23.848L157.623 25.096C157.367 25.72 156.967 26.272 156.423 26.752C155.879 27.232 155.231 27.608 154.479 27.88C153.743 28.152 152.927 28.288 152.031 28.288Z" fill="white"/>
<defs>
<filter id="filter0_dd_13001_399" x="0" y="0" width="38" height="38" filterUnits="userSpaceOnUse" color-interpolation-filters="sRGB">
<feFlood flood-opacity="0" result="BackgroundImageFix"/>
<feColorMatrix in="SourceAlpha" type="matrix" values="0 0 0 0 0 0 0 0 0 0 0 0 0 0 0 0 0 0 127 0" result="hardAlpha"/>
<feOffset dy="1"/>
<feGaussianBlur stdDeviation="1"/>
<feColorMatrix type="matrix" values="0 0 0 0 0.0627451 0 0 0 0 0.0941176 0 0 0 0 0.156863 0 0 0 0.06 0"/>
<feBlend mode="normal" in2="BackgroundImageFix" result="effect1_dropShadow_13001_399"/>
<feColorMatrix in="SourceAlpha" type="matrix" values="0 0 0 0 0 0 0 0 0 0 0 0 0 0 0 0 0 0 127 0" result="hardAlpha"/>
<feOffset dy="1"/>
<feGaussianBlur stdDeviation="1.5"/>
<feColorMatrix type="matrix" values="0 0 0 0 0.0627451 0 0 0 0 0.0941176 0 0 0 0 0.156863 0 0 0 0.1 0"/>
<feBlend mode="normal" in2="effect1_dropShadow_13001_399" result="effect2_dropShadow_13001_399"/>
<feBlend mode="normal" in="SourceGraphic" in2="effect2_dropShadow_13001_399" result="shape"/>
</filter>
<linearGradient id="paint0_linear_13001_399" x1="19" y1="2" x2="19" y2="34" gradientUnits="userSpaceOnUse">
<stop stop-color="white"/>
<stop offset="1" stop-color="#D0D5DD"/>
</linearGradient>
<linearGradient id="paint1_linear_13001_399" x1="19" y1="6" x2="19" y2="30" gradientUnits="userSpaceOnUse">
<stop stop-color="#79DD83"/>
<stop offset="1" stop-color="#00A482"/>
</linearGradient>
</defs>
</svg>
